<?xml version="1.0" encoding="utf-8"?>
<!-- Generator: Adobe Illustrator 22.0.1, SVG Export Plug-In . SVG Version: 6.00 Build 0)  -->
<svg version="1.1" id="Layer_1" xmlns="http://www.w3.org/2000/svg" xmlns:xlink="http://www.w3.org/1999/xlink" x="0px" y="0px"
	 viewBox="0 0 68 68" style="enable-background:new 0 0 68 68;" xml:space="preserve">
<g>
	<g>
		<path d="M24.854248,65.9902344H20.064209c-0.6669922,0-1.2412109-0.4760742-1.3657227-1.1323242l-0.8349609-4.4169922
			c-0.043457-0.2294922-0.2041016-0.4189453-0.418457-0.4936523c-0.5551758-0.1933594-1.1049805-0.4213867-1.6347656-0.6777344
			c-0.2011719-0.0981445-0.4428711-0.0776367-0.6303711,0.0512695l-3.7202148,2.5375977
			c-0.5527344,0.3774414-1.2949219,0.3071289-1.7666016-0.1650391l-3.387207-3.387207
			c-0.472168-0.4702148-0.5415039-1.2128906-0.1650391-1.765625l2.5375977-3.7197266
			c0.128418-0.1889648,0.1484375-0.4316406,0.0512695-0.6328125c-0.2563477-0.5273438-0.484375-1.0766602-0.6777344-1.6328125
			c-0.0751953-0.215332-0.2641602-0.3764648-0.4936523-0.4194336l-4.4169922-0.8349609
			c-0.6552734-0.1240234-1.1313477-0.6982422-1.1313477-1.3657227v-4.7900391c0-0.6674805,0.4755859-1.2421875,1.1313477-1.3666992
			l4.4169922-0.8349609c0.2294922-0.043457,0.418457-0.2036133,0.4936523-0.418457
			c0.1933594-0.5561523,0.4213867-1.1054688,0.6777344-1.6337891c0.0966797-0.2001953,0.0771484-0.4428711-0.0517578-0.6323242
			l-2.5366211-3.7192383c-0.3769531-0.5527344-0.3071289-1.2954102,0.1645508-1.7666016l3.387207-3.3862305
			c0.472168-0.4731445,1.215332-0.5429688,1.7666016-0.1650391l3.7197266,2.5375977
			c0.1889648,0.1289063,0.4301758,0.1489258,0.6303711,0.0512695c0.5302734-0.2563477,1.0800781-0.484375,1.6347656-0.6777344
			c0.2148438-0.074707,0.3754883-0.2646484,0.4194336-0.4951172l0.8344727-4.4155273
			c0.1245117-0.65625,0.6987305-1.1323242,1.3657227-1.1323242h4.7900391c0.6679688,0,1.2421875,0.4765625,1.3652344,1.1333008
			l0.8354492,4.4150391c0.043457,0.2304688,0.2036133,0.4199219,0.4179688,0.4941406
			c0.5561523,0.1938477,1.1064453,0.421875,1.6357422,0.6782227c0.2001953,0.0966797,0.4418945,0.0766602,0.6308594-0.0517578
			l3.7202148-2.5371094c0.5522461-0.3759766,1.2939453-0.3071289,1.7665901,0.1650391l3.3857536,3.3862305
			c0.472168,0.4702148,0.5424805,1.2128906,0.1669922,1.7661133l-2.5395508,3.7202148
			c-0.128418,0.1889648-0.1479492,0.4311523-0.050293,0.6313477c0.2558594,0.5263672,0.4838867,1.0756836,0.6777344,1.6342773
			c0.0751953,0.2148438,0.2641602,0.375,0.4941406,0.418457l4.4169922,0.8349609
			c0.6552734,0.1245117,1.1308594,0.6992188,1.1308594,1.3666992v4.7900391c0,0.6674805-0.4755859,1.2421875-1.1313477,1.3657227
			l-4.4165039,0.8349609c-0.2299805,0.0429688-0.4189453,0.2041016-0.4941406,0.4194336l-0.3540039-0.1230469l0.3540039,0.1230469
			c-0.1938477,0.5585938-0.421875,1.1079102-0.6772461,1.6337891c-0.0981445,0.2006912-0.0786133,0.4428711,0.050293,0.6323242
			l2.5385742,3.7192383c0.3764648,0.5541992,0.3056641,1.296875-0.1674805,1.7666016l-3.3847771,3.3862305
			c-0.4716682,0.4726563-1.214344,0.5410156-1.7665901,0.1650391l-3.7202148-2.5375977
			c-0.1889648-0.1289063-0.4306641-0.1494141-0.6308594-0.0512695c-0.5292969,0.2563477-1.0795898,0.484375-1.6357422,0.6777344
			c-0.2143555,0.074707-0.3745117,0.2636719-0.4179688,0.4936523l-0.8354492,4.4169922
			C26.0964355,65.5136719,25.5222168,65.9902344,24.854248,65.9902344z M15.541748,58.4584961
			c0.2041016,0,0.4077148,0.0449219,0.5961914,0.1362305c0.5029297,0.2436523,1.0258789,0.4604492,1.5537109,0.6445313
			c0.4663086,0.1621094,0.8149414,0.5688477,0.9086914,1.0615234l0.8354492,4.4174805
			c0.0571289,0.3022461,0.3212891,0.5219727,0.628418,0.5219727h4.7900391c0.3071289,0,0.5712891-0.2192383,0.6279297-0.5214844
			l0.8354492-4.4174805c0.09375-0.4931641,0.4418945-0.8999023,0.9091797-1.0625
			c0.5288086-0.1835938,1.0517578-0.4003906,1.5546875-0.644043c0.440918-0.2148438,0.9702148-0.1743164,1.3808594,0.1069336
			l3.7202148,2.5375977c0.2548828,0.1728516,0.597168,0.1416016,0.8134766-0.0761719l3.3857422-3.387207
			c0.2182617-0.2167969,0.25-0.5581055,0.0771484-0.8129883l-2.5385742-3.7192383
			c-0.2802734-0.4125977-0.3203125-0.9423828-0.1049805-1.3833008c0.2421875-0.4985352,0.4589844-1.0209961,0.6435547-1.5512695
			c0.1625977-0.46875,0.5703125-0.8173828,1.0625-0.9106445l4.4169922-0.8349609
			c0.3017578-0.0566406,0.5205078-0.3212891,0.5205078-0.628418v-4.7900391c0-0.3076172-0.21875-0.5722656-0.5205078-0.6293945
			l-4.4169922-0.8349609c-0.4926758-0.0932617-0.8999023-0.4418945-1.0625-0.909668
			c-0.1845703-0.5302734-0.4013672-1.0527344-0.644043-1.5517578c-0.2148438-0.4404297-0.1748047-0.9702148,0.1049805-1.3823242
			l2.5395508-3.7202148c0.1723633-0.2543945,0.1401367-0.5961914-0.0771484-0.8129883l-3.3862305-3.3867188
			c-0.2172852-0.2172852-0.5605469-0.2495117-0.8134766-0.0761719l-3.7202148,2.5375977
			c-0.4116211,0.2802734-0.9404297,0.3208008-1.3808594,0.1069336c-0.5029297-0.2436523-1.0258789-0.4604492-1.5546875-0.6445313
			c-0.4672852-0.1621094-0.8154297-0.5693359-0.9091797-1.0629883l-0.8354492-4.4160156
			c-0.0566406-0.3027344-0.3208008-0.5219727-0.6279297-0.5219727H20.064209c-0.3071289,0-0.5712891,0.2192383-0.628418,0.5219727
			l-0.8349609,4.4160156c-0.0942383,0.4936523-0.4423828,0.9008789-0.909668,1.0629883
			c-0.5273438,0.184082-1.050293,0.4008789-1.5537109,0.6445313c-0.4428711,0.2148438-0.9716797,0.1728516-1.3813477-0.1069336
			l-3.7192383-2.5375977c-0.2543945-0.1743164-0.5976563-0.1411133-0.8134766,0.0761719l-3.387207,3.3862305
			c-0.2172852,0.2167969-0.2490234,0.559082-0.0751953,0.8134766l2.5366211,3.7197266
			c0.2792969,0.4101563,0.3203125,0.9394531,0.1074219,1.3813477c-0.2441406,0.5029297-0.4609375,1.0253906-0.6450195,1.5532227
			c-0.1625977,0.4677734-0.5698242,0.8164063-1.0620117,0.909668L3.2810059,42.515625
			c-0.3017578,0.0571289-0.5209961,0.3217773-0.5209961,0.6293945v4.7900391c0,0.3071289,0.21875,0.5717773,0.5205078,0.628418
			l4.4174805,0.8349609c0.4921875,0.0932617,0.8994141,0.4418945,1.0620117,0.9106445
			c0.184082,0.527832,0.4008789,1.050293,0.6445313,1.5517578c0.2138672,0.4428711,0.1728516,0.972168-0.1064453,1.3823242
			L6.760498,56.9633789c-0.1733398,0.2543945-0.1416016,0.5957031,0.0751953,0.8120117l3.3876953,3.3876953
			c0.2158203,0.2158203,0.559082,0.2490234,0.8134766,0.0761719l3.7197266-2.5375977
			C14.9919434,58.5405273,15.2668457,58.4584961,15.541748,58.4584961z"/>
	</g>
	<g>
		<path d="M22.4592285,54.3867188c-4.8774414,0-8.8457031-3.96875-8.8457031-8.847168
			c0-4.8774414,3.9682617-8.8457031,8.8457031-8.8457031c4.878418,0,8.847168,3.9682617,8.847168,8.8457031
			C31.3063965,50.4179688,27.3376465,54.3867188,22.4592285,54.3867188z M22.4592285,37.4438477
			c-4.4638672,0-8.0957031,3.6318359-8.0957031,8.0957031c0,4.4648438,3.6318359,8.097168,8.0957031,8.097168
			c4.4648438,0,8.097168-3.6323242,8.097168-8.097168C30.5563965,41.0756836,26.9240723,37.4438477,22.4592285,37.4438477z"/>
	</g>
	<g>
		<path d="M51.7526855,34.2416992h-3.7548828c-0.5610352,0-1.0449219-0.4008789-1.1499023-0.9526367l-0.6547852-3.4633789
			c-0.0283203-0.1523438-0.1333008-0.2768555-0.2744141-0.3251953c-0.4370117-0.152832-0.8706055-0.3330078-1.2905273-0.5361328
			c-0.1308594-0.0639648-0.2900391-0.0498047-0.4140625,0.0341797l-2.9169922,1.9897461
			c-0.4619141,0.3183594-1.0883789,0.2597656-1.4873047-0.1391602l-2.6552734-2.6552734
			c-0.3974609-0.3974609-0.4560547-1.0229492-0.1391602-1.4873047l1.9897461-2.9169922
			c0.0844727-0.1245117,0.0976563-0.2836914,0.0341797-0.4150391c-0.203125-0.4199219-0.3833008-0.8535156-0.5356445-1.2890625
			c-0.0488281-0.1425781-0.1728516-0.2475586-0.324707-0.2758789l-3.4628906-0.6552734
			c-0.5522461-0.1040039-0.953125-0.5878906-0.953125-1.1503906v-3.7558594c0-0.5625,0.4008789-1.046875,0.9536133-1.1508789
			l3.4614258-0.6547852c0.1523438-0.0283203,0.2768555-0.1333008,0.324707-0.2739258
			c0.1533203-0.4379883,0.3334961-0.8720703,0.5366211-1.2910156c0.0634766-0.1313477,0.050293-0.2900391-0.0341797-0.4140625
			l-1.9897461-2.9169922c-0.3168945-0.4658203-0.2583008-1.0917969,0.1391602-1.4887695l2.6552734-2.6547852
			c0.3974609-0.3955078,1.0234375-0.4550781,1.4868164-0.1401367l2.9174805,1.9907227
			c0.1240234,0.0849609,0.2832031,0.0976563,0.4130859,0.034668c0.4160156-0.2021484,0.8496094-0.3818359,1.2900391-0.5351563
			c0.1416016-0.0498047,0.2475586-0.1743164,0.2758789-0.3261719l0.6542969-3.4638672
			c0.1054688-0.5522461,0.5893555-0.953125,1.1503906-0.953125h3.7548828c0.5625,0,1.046875,0.4008789,1.1508789,0.9536133
			l0.6547852,3.4624023c0.0288086,0.152832,0.1337891,0.277832,0.2749023,0.3271484
			c0.4404297,0.152832,0.875,0.3330078,1.2905273,0.534668c0.1298828,0.0644531,0.2890625,0.0512695,0.4140625-0.034668
			l2.9165039-1.9897461c0.4638672-0.3168945,1.0898438-0.2578125,1.487793,0.1396484l2.6547852,2.6547852
			c0.3984375,0.3984375,0.4570313,1.0244141,0.1396484,1.4887695l-1.9902344,2.9169922
			c-0.0844727,0.1240234-0.0976563,0.2827148-0.0341797,0.4145508c0.2011719,0.4111328,0.3813477,0.8452148,0.5356445,1.2890625
			c0.0493164,0.1411133,0.1738281,0.2470703,0.3256836,0.2753906l3.4633789,0.6547852
			c0.5522461,0.1044922,0.953125,0.5883789,0.953125,1.1508789v3.7558594c0,0.5620117-0.4008789,1.0458984-0.9536133,1.1503906
			l-3.4628906,0.6552734c-0.1518555,0.0283203-0.2763672,0.1337891-0.3256836,0.2753906c0,0,0,0,0,0.0004883
			c-0.1542969,0.4428711-0.3344727,0.8769531-0.5361328,1.2900391c-0.0629883,0.1298828-0.0493164,0.2895508,0.0356445,0.4150391
			l1.9892578,2.9160156c0.3173828,0.4628906,0.2587891,1.0888672-0.1396484,1.4873047l-2.6547852,2.6552734
			c-0.3969727,0.3984375-1.0224609,0.4575195-1.4882813,0.1391602l-2.9165039-1.9897461
			c-0.1245117-0.0839844-0.2832031-0.0976563-0.4150391-0.0336914C54.7033691,29.1679688,54.2692871,29.3481445,53.833252,29.5
			c-0.1416016,0.0488281-0.246582,0.1733398-0.2749023,0.3251953l-0.6547852,3.4633789
			C52.7995605,33.8408203,52.3151855,34.2416992,51.7526855,34.2416992z M44.4533691,28.1748047
			c0.171875,0,0.3432617,0.0380859,0.5019531,0.1147461c0.3935547,0.1904297,0.8007813,0.3598633,1.2089844,0.5024414
			c0.394043,0.1352539,0.6884766,0.4785156,0.7661133,0.8950195l0.6542969,3.4619141
			c0.0375977,0.1982422,0.2114258,0.3427734,0.4130859,0.3427734h3.7548828c0.2021484,0,0.3764648-0.144043,0.4135742-0.3422852
			l0.6547852-3.4633789c0.0786133-0.4160156,0.3725586-0.7592773,0.7666016-0.8945313
			c0.4077148-0.1420898,0.8144531-0.3110352,1.2084961-0.5019531c0.375-0.1791992,0.8198242-0.1445313,1.1640625,0.0898438
			l2.9169922,1.9897461c0.1665039,0.1142578,0.3916016,0.0922852,0.5341797-0.0498047l2.6552734-2.6557617
			c0.1430664-0.1430664,0.1645508-0.3676758,0.0507813-0.5336914l-1.9902344-2.9174805
			c-0.2358398-0.3476563-0.2700195-0.7939453-0.0898438-1.1650391c0.1889534-0.387207,0.3579102-0.793457,0.5024414-1.2084961l0,0
			c0.137207-0.3950195,0.4799805-0.6884766,0.8945313-0.7666016l3.4628906-0.6552734
			c0.1987305-0.0371094,0.3427734-0.2109375,0.3427734-0.4130859v-3.7558594c0-0.2021484-0.144043-0.3764648-0.3422852-0.4135742
			l-3.4638672-0.6547852c-0.4145508-0.0786133-0.7573242-0.3725586-0.894043-0.7666016
			c-0.1445313-0.4155273-0.313488-0.8217773-0.5019531-1.2075195c-0.1806641-0.3735352-0.1464844-0.8193359,0.0888672-1.1645508
			l1.9907227-2.9174805c0.1137695-0.1669922,0.0927734-0.3920898-0.0507813-0.5356445l-2.6547852-2.6547852
			c-0.1425781-0.1425781-0.3671875-0.1640625-0.5351563-0.050293l-2.9165039,1.9897461
			c-0.3457031,0.2368164-0.7919922,0.2705078-1.1645508,0.0898438c-0.3886719-0.1894531-0.7954102-0.3579102-1.2089844-0.5009766
			c-0.394043-0.1376953-0.6870117-0.480957-0.765625-0.8964844l-0.6547852-3.4624023
			c-0.0371094-0.1987305-0.2114258-0.3427734-0.4135742-0.3427734h-3.7548828c-0.2016602,0-0.3754883,0.1445313-0.4135742,0.3432617
			l-0.6538086,3.4624023c-0.0776367,0.4140625-0.3710938,0.7578125-0.7661133,0.8955078
			c-0.4130859,0.144043-0.8198242,0.3125-1.2089844,0.5014648c-0.3696289,0.1816406-0.815918,0.1479492-1.1635742-0.0893555
			l-2.9174805-1.9907227c-0.1669922-0.112793-0.3916016-0.0908203-0.534668,0.0512695l-2.6547852,2.6542969
			C37.541748,8.730957,37.520752,8.956543,37.6350098,9.1240234l1.9892578,2.9165039
			c0.2358398,0.3447266,0.2705078,0.7910156,0.0898438,1.1635742c-0.1904297,0.3935547-0.3598633,0.800293-0.5024414,1.2094727
			c-0.1342773,0.3930664-0.4775391,0.6875-0.8945313,0.7661133l-3.4614258,0.6547852
			c-0.1987305,0.0371094-0.3427734,0.2114258-0.3427734,0.4135742v3.7558594c0,0.2021484,0.144043,0.3759766,0.3422852,0.4130859
			l3.4624023,0.6552734c0.4160156,0.078125,0.7592773,0.3720703,0.8950195,0.7680664
			c0.1416016,0.40625,0.3110352,0.8134766,0.5014648,1.2070313c0.1801758,0.3720703,0.1459961,0.8178711-0.0893555,1.1640625
			l-1.9902344,2.9179688c-0.1137695,0.1665039-0.0922852,0.3911133,0.050293,0.5341797l2.6552734,2.6552734
			c0.1420898,0.1425781,0.3681641,0.1635742,0.5336914,0.050293l2.9174805-1.9897461
			C43.9899902,28.2436523,44.2214355,28.1748047,44.4533691,28.1748047z M60.8937988,21.9619141h0.0092773H60.8937988z"/>
	</g>
	<g>
		<path d="M49.8757324,25.1435547c-3.8686523,0-7.015625-3.1484375-7.015625-7.0180664
			c0-3.8691406,3.1469727-7.0170898,7.015625-7.0170898c3.8691406,0,7.0170898,3.1479492,7.0170898,7.0170898
			C56.8928223,21.9951172,53.744873,25.1435547,49.8757324,25.1435547z M49.8757324,11.8583984
			c-3.4550781,0-6.265625,2.8115234-6.265625,6.2670898c0,3.4560547,2.8105469,6.2680664,6.265625,6.2680664
			c3.4555664,0,6.2670898-2.8120117,6.2670898-6.2680664C56.1428223,14.6699219,53.3312988,11.8583984,49.8757324,11.8583984z"/>
	</g>
	<g>
		<path d="M56.0974121,65.9223633h-2.578125c-0.4414063,0-0.8222656-0.3149414-0.9052734-0.7495117l-0.4492188-2.3779297
			c-0.012207-0.0639648-0.0541992-0.1147461-0.112793-0.1352539c-0.3071289-0.1064453-0.6064453-0.230957-0.8969727-0.3710938
			c-0.0527344-0.0263672-0.1162109-0.0209961-0.1665039,0.0136719l-2.0039063,1.3662109
			c-0.3657227,0.2490234-0.8579102,0.203125-1.1704102-0.1098633l-1.8227539-1.8232422
			c-0.3125-0.3115234-0.3588867-0.8037109-0.1108398-1.1704102l1.3671875-2.0029297
			c0.0341797-0.050293,0.0400391-0.1152344,0.0146484-0.1674805c-0.140625-0.2890625-0.265625-0.5898438-0.3725586-0.8979492
			c-0.0195313-0.0571289-0.0708008-0.0996094-0.1328125-0.1113281l-2.3793945-0.4501953
			c-0.4345703-0.0825195-0.7504883-0.4633789-0.7504883-0.9057617v-2.5786133c0-0.4423828,0.315918-0.8232422,0.7504883-0.9057617
			l2.3779297-0.4492188c0.0625-0.0117188,0.1147461-0.0556641,0.1347656-0.1132813
			c0.1064453-0.3071289,0.2314453-0.6079102,0.3725586-0.8979492c0.0249023-0.0512695,0.0185547-0.1162109-0.0161133-0.1679688
			l-1.3652344-2.0004883c-0.2490234-0.3671875-0.2026367-0.859375,0.1098633-1.171875l1.8227539-1.8227539
			c0.3125-0.3134766,0.8046875-0.359375,1.1704102-0.109375l2.003418,1.3652344
			c0.050293,0.0356445,0.1137695,0.0405273,0.1669922,0.0151367c0.2900391-0.140625,0.5898438-0.265625,0.8974609-0.3725586
			c0.0571289-0.0195313,0.1005859-0.0717773,0.112793-0.1352539l0.4482422-2.3764648
			c0.0834961-0.4355469,0.4643555-0.7504883,0.9057617-0.7504883h2.578125c0.4414063,0,0.8222656,0.3149414,0.9052734,0.7495117
			l0.4492188,2.3789063c0.0117188,0.0620117,0.0551758,0.1142578,0.1132813,0.1342773
			c0.3071289,0.1064453,0.6064453,0.2314453,0.8979492,0.3725586c0.0512695,0.0244141,0.1162109,0.0200195,0.1655273-0.0141602
			l2.003418-1.3666992c0.3657227-0.2504883,0.8574219-0.2045898,1.1713867,0.109375l1.8222656,1.8227539
			c0.3125,0.3129883,0.3588867,0.8051758,0.1113281,1.1708984l-1.3671875,2.0029297
			c-0.034668,0.0507813-0.0405273,0.1147461-0.015625,0.1665039c0.1416016,0.2895508,0.2651367,0.5898438,0.3730469,0.8979492
			c0.0200195,0.0576172,0.0727539,0.1015625,0.1357422,0.1137695l2.3759766,0.4487305
			c0.4345703,0.0825195,0.7504883,0.4633789,0.7504883,0.9057617v2.5786133c0,0.4423828-0.315918,0.8232422-0.7504883,0.9057617
			l-2.3769531,0.4501953c-0.0639648,0.0117188-0.1147461,0.0537109-0.1342773,0.1103516
			c0,0.0004883-0.0004883,0.0014648-0.0004883,0.0019531c-0.1079102,0.3081055-0.2314453,0.6083984-0.3730469,0.8984375
			c-0.0249023,0.0512695-0.019043,0.1152344,0.0161133,0.1660156l1.3657227,2.0019531
			c0.2490234,0.3666992,0.2021484,0.8588867-0.1103516,1.1713867l-1.8222656,1.8232422
			c-0.3139648,0.3125-0.8056641,0.359375-1.1713867,0.109375l-2.0019531-1.3657227
			c-0.0517578-0.034668-0.1166992-0.0410156-0.1679688-0.0151367c-0.2905273,0.1411133-0.5898438,0.2661133-0.8979492,0.3730469
			c-0.0571289,0.0195313-0.1005859,0.0717773-0.112793,0.1357422l-0.4482422,2.3759766
			C56.9196777,65.6074219,56.5388184,65.9223633,56.0974121,65.9223633z M51.0847168,61.5219727
			c0.1362305,0,0.2724609,0.0302734,0.3979492,0.0917969c0.2626953,0.1264648,0.5356445,0.2402344,0.815918,0.3374023
			c0.3100586,0.1083984,0.5410156,0.3779297,0.6030273,0.7041016l0.4492188,2.3779297
			c0.0151367,0.0800781,0.0864258,0.1391602,0.168457,0.1391602h2.578125c0.0820313,0,0.1533203-0.059082,0.1689453-0.1401367
			l0.4482422-2.3759766c0.0625-0.3266602,0.293457-0.5961914,0.6025391-0.7045898
			c0.2817383-0.0976563,0.5537109-0.2109375,0.8183594-0.3398438c0.2958984-0.140625,0.6469727-0.1137695,0.9174805,0.0712891
			l2.0019531,1.3657227c0.0678711,0.0458984,0.1591797,0.0375977,0.2182617-0.0205078l1.8222656-1.8232422
			c0.0585938-0.0585938,0.0668945-0.1508789,0.0205078-0.2192383l-1.3652344-2.0009766
			c-0.1865234-0.2734375-0.2133789-0.625-0.0703125-0.9179688c0.1289063-0.2636719,0.2407227-0.5371094,0.3388672-0.8168945
			c0.1074219-0.3110352,0.3774414-0.5415039,0.7045898-0.6020508l2.3754883-0.4501953
			c0.0810547-0.0151367,0.1401367-0.0859375,0.1401367-0.168457v-2.5786133c0-0.0825195-0.059082-0.1533203-0.1401367-0.168457
			l-2.3769531-0.4492188c-0.3271484-0.0629883-0.5966797-0.2944336-0.7036133-0.6040039
			c-0.0976563-0.2783203-0.2094727-0.5522461-0.3383789-0.815918c-0.1430664-0.293457-0.1162109-0.6450195,0.0698242-0.9179688
			l1.3666992-2.0019531c0.0458984-0.0678711,0.0366211-0.1601563-0.0219727-0.2192383l-1.8217773-1.8222656
			c-0.0581055-0.0576172-0.1494141-0.0664063-0.2182617-0.0205078l-2.0019531,1.3657227
			c-0.2685547,0.1855469-0.6196289,0.2138672-0.9160156,0.0712891c-0.2661133-0.1289063-0.5380859-0.2421875-0.8188477-0.3393555
			c-0.3100586-0.1088867-0.5405273-0.3779297-0.6030273-0.7026367l-0.4492188-2.3793945
			c-0.0151367-0.0800781-0.0864258-0.1391602-0.168457-0.1391602h-2.578125c-0.0820313,0-0.1533203,0.059082-0.1689453,0.1401367
			l-0.4482422,2.3769531c-0.0629883,0.3266602-0.2939453,0.5957031-0.6030273,0.7036133
			c-0.2807617,0.0976563-0.5532227,0.2109375-0.8178711,0.3393555c-0.296875,0.1425781-0.6484375,0.1142578-0.9179688-0.0717773
			l-2.0014648-1.3642578c-0.0688477-0.0478516-0.159668-0.0390625-0.2172852,0.0200195l-1.8227539,1.8227539
			c-0.0585938,0.0585938-0.0668945,0.1508789-0.0200195,0.2197266l1.3652344,2.0009766
			c0.1850586,0.2734375,0.2119141,0.6240234,0.0712891,0.9160156c-0.1289063,0.2651367-0.2426758,0.5385742-0.3393555,0.8183594
			c-0.1088867,0.3100586-0.3779297,0.5405273-0.7026367,0.6030273l-2.3789063,0.449707
			c-0.0810547,0.0151367-0.1401367,0.0859375-0.1401367,0.168457v2.5786133c0,0.0825195,0.059082,0.1533203,0.1401367,0.168457
			l2.3779297,0.4501953c0.324707,0.0600586,0.5947266,0.2910156,0.703125,0.6020508
			c0.097168,0.2802734,0.2109375,0.5537109,0.3393555,0.8173828c0.1411133,0.2929688,0.1147461,0.6435547-0.0698242,0.9160156
			l-1.3671875,2.003418c-0.0458984,0.0678711-0.0375977,0.159668,0.0205078,0.2177734l1.8232422,1.8237305
			c0.0585938,0.0576172,0.1499023,0.0673828,0.2172852,0.0205078l2.003418-1.3662109
			C50.7209473,61.5761719,50.9025879,61.5219727,51.0847168,61.5219727z M62.373291,57.3735352h0.0092773H62.373291z"/>
	</g>
	<g>
		<path d="M54.8083496,59.6757813c-2.7211914,0-4.9350586-2.2143555-4.9350586-4.9360352s2.2138672-4.9360352,4.9350586-4.9360352
			s4.9350586,2.2143555,4.9350586,4.9360352S57.529541,59.6757813,54.8083496,59.6757813z M54.8083496,50.5537109
			c-2.3076172,0-4.1850586,1.8779297-4.1850586,4.1860352s1.8774414,4.1860352,4.1850586,4.1860352
			s4.1850586-1.8779297,4.1850586-4.1860352S57.1159668,50.5537109,54.8083496,50.5537109z"/>
	</g>
</g>
</svg>
